name ./resultDataOpenSim/trcMotMarkerGrf/sub06/grf-15-07.mot
datacolumns 19
datarows 17
range 1.58800000 1.65200000
endheader

                time	     ground_force_vx	     ground_force_vy	     ground_force_vz	     ground_force_px	     ground_force_py	     ground_force_pz	   l_ground_force_vx	   l_ground_force_vy	   l_ground_force_vz	   l_ground_force_px	   l_ground_force_py	   l_ground_force_pz	     ground_torque_x	     ground_torque_y	     ground_torque_z	   l_ground_torque_x	   l_ground_torque_y	   l_ground_torque_z	
          1.58800000	        134.50963087	        651.59081991	        -45.56673379	          0.94444384	          0.00000000	          0.07195217	          0.00000000	          0.00000000	          0.00000000	          0.00000000	          0.00000000	          0.00000000	          0.00000000	          2.45751632	          0.00000000	          0.00000000	          0.00000000	          0.00000000	
          1.59200000	        139.08735824	        654.45070056	        -47.00518746	          0.94454164	          0.00000000	          0.07183809	          0.00000000	          0.00000000	          0.00000000	          0.00000000	          0.00000000	          0.00000000	          0.00000000	          2.42625011	          0.00000000	          0.00000000	          0.00000000	          0.00000000	
          1.59600000	        143.68393518	        656.27409645	        -48.31367221	          0.94462791	          0.00000000	          0.07169737	          0.00000000	          0.00000000	          0.00000000	          0.00000000	          0.00000000	          0.00000000	          0.00000000	          2.39545134	          0.00000000	          0.00000000	          0.00000000	          0.00000000	
          1.60000000	        148.28171778	        657.04649993	        -49.33907347	          0.94470708	          0.00000000	          0.07152737	          0.00000000	          0.00000000	          0.00000000	          0.00000000	          0.00000000	          0.00000000	          0.00000000	          2.37030593	          0.00000000	          0.00000000	          0.00000000	          0.00000000	
          1.60400000	        152.81338046	        656.74911852	        -49.94859318	          0.94477443	          0.00000000	          0.07132836	          0.00000000	          0.00000000	          0.00000000	          0.00000000	          0.00000000	          0.00000000	          0.00000000	          2.35847124	          0.00000000	          0.00000000	          0.00000000	          0.00000000	
          1.60800000	        157.20170170	        655.34126714	        -50.05157141	          0.94485071	          0.00000000	          0.07110491	          0.00000000	          0.00000000	          0.00000000	          0.00000000	          0.00000000	          0.00000000	          0.00000000	          2.36786833	          0.00000000	          0.00000000	          0.00000000	          0.00000000	
          1.61200000	        161.42651062	        652.74548341	        -49.60098051	          0.94494577	          0.00000000	          0.07085840	          0.00000000	          0.00000000	          0.00000000	          0.00000000	          0.00000000	          0.00000000	          0.00000000	          2.40345496	          0.00000000	          0.00000000	          0.00000000	          0.00000000	
          1.61600000	        165.58480228	        648.83035350	        -48.58208967	          0.94506191	          0.00000000	          0.07059392	          0.00000000	          0.00000000	          0.00000000	          0.00000000	          0.00000000	          0.00000000	          0.00000000	          2.46364304	          0.00000000	          0.00000000	          0.00000000	          0.00000000	
          1.62000000	        169.87457042	        643.41966698	        -47.03699891	          0.94517171	          0.00000000	          0.07031339	          0.00000000	          0.00000000	          0.00000000	          0.00000000	          0.00000000	          0.00000000	          0.00000000	          2.53789071	          0.00000000	          0.00000000	          0.00000000	          0.00000000	
          1.62400000	        174.47223310	        636.34060276	        -45.12061976	          0.94517858	          0.00000000	          0.07002315	          0.00000000	          0.00000000	          0.00000000	          0.00000000	          0.00000000	          0.00000000	          0.00000000	          2.60758442	          0.00000000	          0.00000000	          0.00000000	          0.00000000	
          1.62800000	        179.39530806	        627.46967937	        -43.06992055	          0.94505387	          0.00000000	          0.06974152	          0.00000000	          0.00000000	          0.00000000	          0.00000000	          0.00000000	          0.00000000	          0.00000000	          2.65110767	          0.00000000	          0.00000000	          0.00000000	          0.00000000	
          1.63200000	        184.49215746	        616.73826541	        -41.08787362	          0.94482464	          0.00000000	          0.06947071	          0.00000000	          0.00000000	          0.00000000	          0.00000000	          0.00000000	          0.00000000	          0.00000000	          2.65115109	          0.00000000	          0.00000000	          0.00000000	          0.00000000	
          1.63600000	        189.53735839	        604.07231358	        -39.29917822	          0.94448921	          0.00000000	          0.06919574	          0.00000000	          0.00000000	          0.00000000	          0.00000000	          0.00000000	          0.00000000	          0.00000000	          2.60059997	          0.00000000	          0.00000000	          0.00000000	          0.00000000	
          1.64000000	        194.26701779	        589.27705621	        -37.77208326	          0.94401920	          0.00000000	          0.06892098	          0.00000000	          0.00000000	          0.00000000	          0.00000000	          0.00000000	          0.00000000	          0.00000000	          2.50421184	          0.00000000	          0.00000000	          0.00000000	          0.00000000	
          1.64400000	        198.32296702	        571.97215097	        -36.49425865	          0.94340843	          0.00000000	          0.06866894	          0.00000000	          0.00000000	          0.00000000	          0.00000000	          0.00000000	          0.00000000	          0.00000000	          2.37542266	          0.00000000	          0.00000000	          0.00000000	          0.00000000	
          1.64800000	        201.22628477	        551.66099346	        -35.35164047	          0.94269123	          0.00000000	          0.06844899	          0.00000000	          0.00000000	          0.00000000	          0.00000000	          0.00000000	          0.00000000	          0.00000000	          2.22982566	          0.00000000	          0.00000000	          0.00000000	          0.00000000	
          1.65200000	        202.45345859	        527.87026315	        -34.18276986	          0.94194796	          0.00000000	          0.06826206	          0.00000000	          0.00000000	          0.00000000	          0.00000000	          0.00000000	          0.00000000	          0.00000000	          2.07861033	          0.00000000	          0.00000000	          0.00000000	          0.00000000	
